<svg xmlns="http://www.w3.org/2000/svg" width="30" height="30" viewBox="0 0 30 30">
  <g fill="none" fill-rule="evenodd">
    <path fill="#5F67FF" d="M9.7826087,11.0869565 C8.9673913,12.176036 8.47826087,13.5326087 8.47826087,15 C8.47826087,16.4673913 8.9673913,17.823964 9.78897758,18.9130435 C10.1542332,19.4085428 10.5914572,19.8457668 11.0869565,20.2173913 C12.176036,21.0326087 13.5326087,21.5217391 15,21.5217391 C16.4673913,21.5217391 17.823964,21.0326087 18.9130435,20.2173913 C19.4085428,19.8457668 19.8457668,19.4085428 20.2173913,18.9130435 C21.0326087,17.823964 21.5217391,16.4673913 21.5217391,15 C21.5217391,13.5326087 21.0326087,12.176036 20.2173913,11.0869565 C19.8457668,10.5914572 19.4085428,10.1542332 18.9130435,9.78897758 C17.823964,8.9673913 16.4673913,8.47826087 15,8.47826087 C13.5326087,8.47826087 12.176036,8.9673913 11.0869565,9.78897758 C10.5914572,10.1542332 10.1542332,10.5914572 9.7826087,11.0869565 Z M15,12.3913043 C16.4412789,12.3913043 17.6086957,13.5587211 17.6086957,15 C17.6086957,16.4412789 16.4412789,17.6086957 15,17.6086957 C13.5587211,17.6086957 12.3913043,16.4412789 12.3913043,15 C12.3913043,13.5587211 13.5587211,12.3913043 15,12.3913043 Z" opacity=".1"/>
    <g fill="#FFF" fill-rule="nonzero">
      <path d="M29.3478261,11.7391304 C29.7086235,11.7391304 30,11.4477539 30,11.0869565 C30,10.7261592 29.7086235,10.4347826 29.3478261,10.4347826 L20.5129076,10.4347826 C20.2247155,10.0870414 19.907545,9.77210005 19.5652174,9.49123215 L19.5652174,3.26086957 C19.5652174,2.9000722 19.2738408,2.60869565 18.9130435,2.60869565 C18.5522461,2.60869565 18.2608696,2.9000722 18.2608696,3.26086957 L18.2608696,8.6139181 C17.4488366,8.19580076 16.5683381,7.93945312 15.6521739,7.85729446 L15.6521739,0.652173913 C15.6521739,0.291376549 15.359842,0 15,0 C14.640158,0 14.3478261,0.291376549 14.3478261,0.652173913 L14.3478261,7.85729446 C13.4310249,7.93945312 12.5498896,8.19580076 11.7391304,8.61328125 L11.7391304,3.26086957 C11.7391304,2.9000722 11.4467985,2.60869565 11.0869565,2.60869565 C10.7271145,2.60869565 10.4347826,2.9000722 10.4347826,3.26086957 L10.4347826,9.49186908 C10.0911812,9.77337383 9.77464761,10.0886336 9.48709239,10.4347826 L0.652173913,10.4347826 C0.292331902,10.4347826 0,10.7261592 0,11.0869565 C0,11.4477539 0.292331902,11.7391304 0.652173913,11.7391304 L8.61137054,11.7391304 C8.19452698,12.5524371 7.93945312,13.4329357 7.85729446,14.3478261 L3.26086957,14.3478261 C2.90102755,14.3478261 2.60869565,14.6392026 2.60869565,15 C2.60869565,15.3607974 2.90102755,15.6521739 3.26086957,15.6521739 L7.85729446,15.6521739 C7.93945312,16.5689751 8.19580076,17.4501104 8.61328125,18.2608696 L0.652173913,18.2608696 C0.292331902,18.2608696 0,18.5522461 0,18.9130435 C0,19.2738408 0.292331902,19.5652174 0.652173913,19.5652174 L9.49123215,19.5652174 C9.77210005,19.9081819 10.0870414,20.2247155 10.4347826,20.5122708 L10.4347826,26.7391304 C10.4347826,27.0999278 10.7271145,27.3913043 11.0869565,27.3913043 C11.4467985,27.3913043 11.7391304,27.0999278 11.7391304,26.7391304 L11.7391304,21.3886295 C12.5524371,21.805473 13.4329357,22.0605469 14.3478261,22.1427055 L14.3478261,29.3478261 C14.3478261,29.7086235 14.640158,30 15,30 C15.359842,30 15.6521739,29.7086235 15.6521739,29.3478261 L15.6521739,22.1420686 C16.5670643,22.0599099 17.4475629,21.8048361 18.2608696,21.3879925 L18.2608696,26.7391304 C18.2608696,27.0999278 18.5522461,27.3913043 18.9130435,27.3913043 C19.2738408,27.3913043 19.5652174,27.0999278 19.5652174,26.7391304 L19.5652174,20.5129076 C19.9100926,20.2266262 20.2266262,19.9100926 20.5129076,19.5652174 L29.3478261,19.5652174 C29.7086235,19.5652174 30,19.2738408 30,18.9130435 C30,18.5522461 29.7086235,18.2608696 29.3478261,18.2608696 L21.3886295,18.2608696 C21.805473,17.4475629 22.0605469,16.5670643 22.1427055,15.6521739 L26.7391304,15.6521739 C27.0999278,15.6521739 27.3913043,15.3607974 27.3913043,15 C27.3913043,14.6392026 27.0999278,14.3478261 26.7391304,14.3478261 L22.1420686,14.3478261 C22.0599099,13.4329357 21.8048361,12.5524371 21.3879925,11.7391304 L29.3478261,11.7391304 Z M19.6957795,18.5210385 C19.3610946,18.9665421 18.9665421,19.3610946 18.5216755,19.6951427 C17.4959664,20.4632303 16.2782354,20.8695652 15,20.8695652 C13.7224015,20.8695652 12.5040336,20.4632303 11.4783245,19.6957795 C11.0968283,19.4094982 10.7666015,19.0741763 10.4720406,18.7095576 C10.4249108,18.5688052 10.3316067,18.4557575 10.2096425,18.3761464 C9.50556212,17.3835555 9.13043478,16.2215523 9.13043478,15 C9.13043478,13.7217646 9.5367697,12.5040336 10.3042205,11.4783245 C10.6401792,11.0302735 11.0340947,10.6389054 11.4795983,10.309634 C12.502123,9.53804348 13.7198539,9.13043478 15,9.13043478 C16.2801461,9.13043478 17.497877,9.53804348 18.5254968,10.3134554 C18.9659053,10.6376316 19.3591839,11.0302735 19.6951427,11.4776877 C20.4632303,12.5040336 20.8695652,13.7217646 20.8695652,15 C20.8695652,16.2782354 20.4632303,17.4959664 19.6957795,18.5210385 Z"/>
      <path d="M15,11.7391304 C13.2020635,11.7391304 11.7391304,13.2020635 11.7391304,15 C11.7391304,16.7979365 13.2020635,18.2608696 15,18.2608696 C16.7979365,18.2608696 18.2608696,16.7979365 18.2608696,15 C18.2608696,13.2020635 16.7979365,11.7391304 15,11.7391304 Z M15,16.9565217 C13.9214292,16.9565217 13.0434783,16.0785708 13.0434783,15 C13.0434783,13.9214292 13.9214292,13.0434783 15,13.0434783 C16.0785708,13.0434783 16.9565217,13.9214292 16.9565217,15 C16.9565217,16.0785708 16.0785708,16.9565217 15,16.9565217 Z"/>
    </g>
  </g>
</svg>
