<svg xmlns="http://www.w3.org/2000/svg" width="18" height="18" viewBox="0 0 18 18">
  <path fill="#869AAD" d="M16.0714286,4.79616347e-14 L1.78571429,4.79616347e-14 C0.803571429,4.79616347e-14 1.27897692e-13,0.804705882 1.27897692e-13,1.78823529 L1.27897692e-13,16.0941176 C1.27897692e-13,17.0776471 0.803571429,17.8823529 1.78571429,17.8823529 L16.0714286,17.8823529 C17.0535714,17.8823529 17.8571429,17.0776471 17.8571429,16.0941176 L17.8571429,1.78823529 C17.8571429,0.804705882 17.0535714,4.79616347e-14 16.0714286,4.79616347e-14 Z M5.35714286,15.2 L2.67857143,15.2 L2.67857143,7.15294118 L5.35714286,7.15294118 L5.35714286,15.2 Z M4.01785714,5.63294118 C3.125,5.63294118 2.41071429,4.91764706 2.41071429,4.02352941 C2.41071429,3.12941176 3.125,2.41411765 4.01785714,2.41411765 C4.91071429,2.41411765 5.625,3.12941176 5.625,4.02352941 C5.625,4.91764706 4.91071429,5.63294118 4.01785714,5.63294118 Z M15.1785714,15.2 L12.5,15.2 L12.5,10.4611765 C12.5,9.74591742 11.875,9.12 11.1607143,9.12 C10.4464286,9.12 9.82142857,9.74591742 9.82142857,10.4611765 L9.82142857,15.2 L7.14285714,15.2 L7.14285714,7.15294118 L9.82142857,7.15294118 L9.82142857,8.22588235 C10.2678571,7.51058824 11.25,6.97411765 12.0535714,6.97411765 C13.75,6.97411765 15.1785714,8.40470588 15.1785714,10.1035294 L15.1785714,15.2 Z"/>
</svg>
