<svg xmlns="http://www.w3.org/2000/svg" width="30" height="30" viewBox="0 0 30 30">
  <path fill="#FFF" d="M29.3478261,1.30434783 C29.7076681,1.30434783 30,1.01201592 30,0.652173913 C30,0.292331902 29.7076681,0 29.3478261,0 L3.26086957,0 C1.46293304,0 0,1.46293304 0,3.26086957 L0,26.7391304 C0,28.537067 1.46293304,30 3.26086957,30 L29.3478261,30 C29.7076681,30 30,29.7086235 30,29.3478261 L30,5.86956522 C30,5.50972321 29.7076681,5.2173913 29.3478261,5.2173913 C28.2692552,5.2173913 27.3913043,4.33944041 27.3913043,3.26086957 C27.3913043,2.18229872 28.2692552,1.30434783 29.3478261,1.30434783 Z M3.26086957,1.30434783 L26.7404042,1.30434783 C26.3308849,1.84952446 26.0869565,2.52717391 26.0869565,3.26086957 C26.0869565,3.99456522 26.3308849,4.67221467 26.7404042,5.2173913 L3.26086957,5.2173913 C2.18229872,5.2173913 1.30434783,4.33944041 1.30434783,3.26086957 C1.30434783,2.18229872 2.18229872,1.30434783 3.26086957,1.30434783 Z M28.6956522,20.8695652 L17.6086957,20.8695652 C15.8107591,20.8695652 14.3478261,19.4066322 14.3478261,17.6086957 C14.3478261,15.8107591 15.8107591,14.3478261 17.6086957,14.3478261 L28.6956522,14.3478261 L28.6956522,20.8695652 Z M28.6956522,6.52173913 L28.6956522,13.0434783 L17.6086957,13.0434783 C15.0913935,13.0434783 13.0434783,15.0913935 13.0434783,17.6086957 C13.0434783,20.1253609 15.0913935,22.173913 17.6086957,22.173913 L28.6956522,22.173913 L28.6956522,28.6956522 L3.26086957,28.6956522 C2.18229872,28.6956522 1.30434783,27.8177013 1.30434783,26.7391304 L1.30434783,5.86829144 C1.84952446,6.27781076 2.52717391,6.52173913 3.26086957,6.52173913 L28.6956522,6.52173913 Z"/>
</svg>
