<svg xmlns="http://www.w3.org/2000/svg" width="230" height="132" viewBox="0 0 230 132">
  <defs>
    <linearGradient id="universallogin-logo-a" x1="50%" x2="50%" y1="0%" y2="100%">
      <stop offset="0%" stop-color="#DEEDFF"/>
      <stop offset="100%" stop-color="#B2D4FD"/>
    </linearGradient>
    <linearGradient id="universallogin-logo-b" x1="90.51%" x2="87.171%" y1="0%" y2="64.341%">
      <stop offset="0%" stop-color="#00D6D9"/>
      <stop offset="100%" stop-color="#455CDA"/>
    </linearGradient>
    <linearGradient id="universallogin-logo-c" x1="64.68%" x2="86.637%" y1="0%" y2="33.138%">
      <stop offset="0%" stop-color="#00D6D9"/>
      <stop offset="39.973%" stop-color="#1CEFF5" stop-opacity=".6"/>
      <stop offset="100%" stop-color="#04CFD9" stop-opacity="0"/>
    </linearGradient>
    <linearGradient id="universallogin-logo-d" x1="64.85%" x2="71.949%" y1="50%" y2="59.736%">
      <stop offset="0%" stop-color="#3F66DA" stop-opacity="0"/>
      <stop offset="100%" stop-color="#2E2EAE"/>
    </linearGradient>
    <linearGradient id="universallogin-logo-e" x1="44.043%" x2="68.272%" y1="43.159%" y2="88.249%">
      <stop offset="0%" stop-color="#2D41B3" stop-opacity="0"/>
      <stop offset="100%" stop-color="#141E62"/>
    </linearGradient>
    <linearGradient id="universallogin-logo-f" x1="43.426%" x2="83.697%" y1="20.807%" y2="69.271%">
      <stop offset="0%" stop-color="#3F66DA" stop-opacity="0"/>
      <stop offset="100%" stop-color="#2436C1"/>
    </linearGradient>
    <linearGradient id="universallogin-logo-g" x1="79.308%" x2="84.243%" y1="114.196%" y2="27.718%">
      <stop offset="0%" stop-color="#706AE1"/>
      <stop offset="49.668%" stop-color="#686CFF"/>
      <stop offset="100%" stop-color="#4352ED"/>
    </linearGradient>
    <linearGradient id="universallogin-logo-h" x1="190.663%" y1="0%" y2="118.578%">
      <stop offset="0%" stop-color="#00D6D9"/>
      <stop offset="100%" stop-color="#0FC4DD" stop-opacity="0"/>
    </linearGradient>
    <linearGradient id="universallogin-logo-i" x1="32.768%" x2="50%" y1="50%" y2="79.275%">
      <stop offset="0%" stop-color="#2D41B3" stop-opacity="0"/>
      <stop offset="100%" stop-color="#141E62"/>
    </linearGradient>
    <linearGradient id="universallogin-logo-j" x1="69.976%" x2="38.879%" y1="72.967%" y2="94.862%">
      <stop offset="0%" stop-color="#3F4DDA" stop-opacity="0"/>
      <stop offset="100%" stop-color="#2736A4"/>
    </linearGradient>
    <linearGradient id="universallogin-logo-k" x1="8.731%" x2="75.794%" y1="0%" y2="79.07%">
      <stop offset="0%" stop-color="#00D6D9"/>
      <stop offset="100%" stop-color="#5272EE"/>
    </linearGradient>
    <linearGradient id="universallogin-logo-l" x1="-29.315%" x2="28.807%" y1="24.262%" y2="71.104%">
      <stop offset="0%" stop-color="#00D6D9"/>
      <stop offset="45.46%" stop-color="#66E1EA" stop-opacity=".545"/>
      <stop offset="100%" stop-color="#0FC4DD" stop-opacity="0"/>
    </linearGradient>
    <linearGradient id="universallogin-logo-m" x1="66.556%" x2="98.603%" y1="68.466%" y2="50.771%">
      <stop offset="0%" stop-color="#3F4DDA" stop-opacity="0"/>
      <stop offset="100%" stop-color="#211B9A"/>
    </linearGradient>
    <linearGradient id="universallogin-logo-n" x1="31.865%" x2="65.914%" y1="67.74%" y2="100%">
      <stop offset="0%" stop-color="#5272EE" stop-opacity="0"/>
      <stop offset="72.755%" stop-color="#292AA8" stop-opacity=".84"/>
      <stop offset="100%" stop-color="#211C9B"/>
    </linearGradient>
  </defs>
  <g fill="none" fill-rule="evenodd">
    <path fill="#FFF" d="M13.846458,16.6401625 L13.846458,1.35733646 L17.4301036,1.35733646 L17.4301036,16.6401625 C17.4301036,19.1193766 16.5928032,21.1570867 14.9182025,22.753293 C13.2770938,24.3155374 11.2675729,25.0966596 8.88963991,25.0966596 C6.51170689,25.0966596 4.46869401,24.3155374 2.79409329,22.753293 C1.15298458,21.1570867 0.315684224,19.1193766 0.315684224,16.6401625 L0.315684224,1.35733646 L3.93282178,1.35733646 L3.93282178,16.6401625 C3.93282178,18.1005215 4.40170998,19.3231476 5.3729784,20.2401171 C6.34424681,21.1570867 7.51646732,21.6325524 8.88963991,21.6325524 C10.2628125,21.6325524 11.401541,21.1570867 12.3728094,20.2401171 C13.3440778,19.3231476 13.846458,18.1005215 13.846458,16.6401625 Z M26.0710433,16.2326205 L26.0710433,24.7570413 L22.6213658,24.7570413 L22.6213658,8.896864 L26.0710433,8.896864 L26.0710433,11.2741925 C26.9083437,9.54213887 28.9848485,8.55724564 30.8604013,8.55724564 C34.644999,8.55724564 36.8219799,11.0364596 36.8219799,15.519422 L36.8219799,24.7570413 L33.3723024,24.7570413 L33.3723024,15.926964 C33.3723024,13.44775 32.0996059,11.987391 30.090085,11.987391 C27.812628,11.987391 26.0710433,13.3458645 26.0710433,16.2326205 Z M44.8935554,24.7570413 L41.4773699,24.7570413 L41.4773699,8.896864 L44.8935554,8.896864 L44.8935554,24.7570413 Z M43.1854626,0.270557715 C44.4916512,0.270557715 45.4629196,1.22148912 45.4629196,2.47807704 C45.4629196,3.73466496 44.4916512,4.68559636 43.1854626,4.68559636 C41.9462581,4.68559636 40.8745137,3.70070313 40.8745137,2.47807704 C40.8745137,1.25545095 41.9462581,0.270557715 43.1854626,0.270557715 Z M57.4530608,24.7570413 L54.2713194,24.7570413 L47.7403766,8.896864 L51.3910062,8.896864 L55.8789361,20.3080408 L60.299882,8.896864 L63.9840036,8.896864 L57.4530608,24.7570413 Z M81.7012792,16.7760099 C81.7012792,17.4212848 81.7012792,17.8288268 81.6677872,18.0665596 L69.2422498,18.0665596 C69.543678,20.5118118 71.4862148,22.0400944 74.0316079,22.0400944 C75.8066847,22.0400944 77.4812854,21.2250104 78.2850937,19.7646514 L81.0984229,21.0212394 C79.7587424,23.7042244 76.9789052,25.0966596 73.8641478,25.0966596 C71.5866909,25.0966596 69.677646,24.3155374 68.1370134,22.7872548 C66.5963807,21.2589722 65.8260644,19.2552239 65.8260644,16.7760099 C65.8260644,14.2967959 66.5963807,12.3270094 68.1370134,10.8326886 C69.677646,9.30440602 71.5866909,8.55724564 73.8641478,8.55724564 C76.1416048,8.55724564 78.0171576,9.30440602 79.4908062,10.8326886 C80.9644549,12.3270094 81.7012792,14.2967959 81.7012792,16.7760099 Z M69.2422498,15.519422 L78.3185857,15.519422 C78.0171576,13.0741698 76.2420809,11.6138109 73.8641478,11.6138109 C71.4192308,11.6138109 69.543678,13.1081316 69.2422498,15.519422 Z M88.8015862,19.0514529 L88.8015862,24.7570413 L85.3519088,24.7570413 L85.3519088,8.896864 L88.8015862,8.896864 L88.8015862,12.5307804 C89.5719026,9.88175723 90.9785672,8.55724564 93.0885641,8.55724564 C94.3277686,8.55724564 95.265545,8.76101665 95.8684013,9.16855868 L95.299037,12.3949331 C94.5957047,12.0213529 93.8253884,11.8515437 92.988088,11.8515437 C90.1747588,11.8515437 88.8015862,14.6024524 88.8015862,19.0514529 Z M104.475849,18.406178 L102.365852,17.8967505 C99.1171267,16.9797809 97.8109381,15.3496128 98.0453822,12.7345514 C98.1458583,11.5458872 98.7152225,10.5609939 99.820459,9.77987172 C100.925695,8.96478767 102.198392,8.55724564 103.638549,8.55724564 C106.719814,8.55724564 109.164731,10.0855282 109.332191,13.243979 L106.049974,13.243979 C105.916006,12.1232384 104.944737,11.5458872 103.772517,11.5458872 C102.868232,11.5458872 101.863472,11.8855055 101.562044,12.4288949 C101.294108,12.8703988 101.260616,13.3458645 101.428076,13.855292 C101.595536,14.3647196 102.231884,14.7722616 103.33712,15.0779181 L105.748546,15.6892311 C108.461399,16.3684679 109.834571,17.8967505 109.834571,20.3080408 C109.834571,23.2966824 107.255686,25.0966596 103.605057,25.0966596 C102.030932,25.0966596 100.657759,24.6211939 99.4520468,23.7042244 C98.2463343,22.753293 97.643478,21.4967051 97.609986,19.9004988 L100.791727,19.9004988 C100.959187,21.292934 102.097916,22.1759418 103.872993,22.1759418 C105.480609,22.1759418 106.65283,21.4627432 106.65283,20.274079 C106.65283,19.3571094 105.916006,18.7457964 104.475849,18.406178 Z M129.192956,24.7570413 L125.77677,24.7570413 L125.77677,22.4815983 C124.805502,24.1117664 122.561537,25.0966596 120.518524,25.0966596 C118.341543,25.0966596 116.46599,24.3155374 114.891865,22.7872548 C113.351233,21.2589722 112.580916,19.2552239 112.580916,16.8099717 C112.580916,14.3647196 113.351233,12.3949331 114.891865,10.8666505 C116.46599,9.33836786 118.341543,8.55724564 120.518524,8.55724564 C122.561537,8.55724564 124.738518,9.4742152 125.77677,11.1383452 L125.77677,8.896864 L129.192956,8.896864 L129.192956,24.7570413 Z M125.743278,16.7760099 C125.743278,15.315651 125.240898,14.1269867 124.269629,13.2779408 C123.298361,12.3949331 122.193125,11.9534292 120.920428,11.9534292 C119.580747,11.9534292 118.442019,12.3949331 117.504243,13.3119026 C116.599958,14.1949104 116.13107,15.3496128 116.13107,16.7760099 C116.13107,18.202407 116.599958,19.3910712 117.504243,20.3080408 C118.442019,21.2250104 119.580747,21.7004761 120.920428,21.7004761 C123.599789,21.7004761 125.743278,19.7646514 125.743278,16.7760099 Z M137.465483,24.7570413 L134.015806,24.7570413 L134.015806,0.270557715 L137.465483,0.270557715 L137.465483,24.7570413 Z M164.192111,24.7570413 L151.398161,24.7570413 L151.398161,1.35733646 L154.948315,1.35733646 L154.948315,21.4627432 L164.192111,21.4627432 L164.192111,24.7570413 Z M174.641619,21.7004761 C175.9813,21.7004761 177.120028,21.2589722 178.024313,20.3420026 C178.928597,19.4250331 179.397485,18.2363688 179.397485,16.7760099 C179.397485,13.9232157 177.32098,11.987391 174.641619,11.987391 C173.335431,11.987391 172.196702,12.4288949 171.292418,13.3119026 C170.388133,14.1949104 169.919245,15.3496128 169.919245,16.7760099 C169.919245,18.2363688 170.388133,19.4250331 171.292418,20.3420026 C172.196702,21.2589722 173.335431,21.7004761 174.641619,21.7004761 Z M174.641619,8.55724564 C176.952568,8.55724564 178.895105,9.30440602 180.46923,10.8326886 C182.043354,12.3609712 182.847163,14.3307577 182.847163,16.7760099 C182.847163,19.2212621 182.043354,21.2250104 180.435738,22.7872548 C178.861613,24.3155374 176.919076,25.0966596 174.641619,25.0966596 C172.364162,25.0966596 170.421625,24.3155374 168.847501,22.7872548 C167.273376,21.2250104 166.50306,19.2212621 166.50306,16.7760099 C166.50306,14.3307577 167.273376,12.3609712 168.847501,10.8326886 C170.421625,9.30440602 172.364162,8.55724564 174.641619,8.55724564 Z M198.822854,16.8439336 C198.822854,13.8213302 196.712857,11.9534292 194.000003,11.9534292 C192.660323,11.9534292 191.521594,12.4288949 190.61731,13.3458645 C189.713026,14.262834 189.244137,15.4175365 189.244137,16.8439336 C189.244137,18.3042925 189.713026,19.4589949 190.61731,20.3759645 C191.521594,21.292934 192.660323,21.7344379 194.000003,21.7344379 C195.239208,21.7344379 196.377936,21.292934 197.349205,20.4099263 C198.320473,19.4929567 198.822854,18.3042925 198.822854,16.8439336 Z M187.837473,27.4739881 L189.277629,26.7607896 C190.081438,28.3909577 191.923499,29.4098128 193.665083,29.4098128 C197.148253,29.4098128 198.889838,27.3381408 198.889838,23.160835 L198.889838,22.345751 C197.985553,24.0778046 195.77508,25.0966596 193.598099,25.0966596 C191.421118,25.0966596 189.545566,24.3494993 188.004933,22.8212167 C186.4643,21.292934 185.693984,19.3231476 185.693984,16.8778954 C185.693984,14.3986814 186.4643,12.3949331 188.004933,10.8666505 C189.545566,9.33836786 191.421118,8.55724564 193.598099,8.55724564 C195.77508,8.55724564 197.952061,9.57610071 198.889838,11.2402307 L198.889838,8.896864 L202.272531,8.896864 L202.272531,22.4136746 C202.272531,29.2400036 199.392218,32.670149 193.665083,32.670149 C190.61731,32.670149 187.904457,31.0399809 186.430808,28.2211485 L187.837473,27.4739881 Z M210.511567,24.7570413 L207.095381,24.7570413 L207.095381,8.896864 L210.511567,8.896864 L210.511567,24.7570413 Z M208.803474,0.270557715 C210.109662,0.270557715 211.080931,1.22148912 211.080931,2.47807704 C211.080931,3.73466496 210.109662,4.68559636 208.803474,4.68559636 C207.564269,4.68559636 206.492525,3.70070313 206.492525,2.47807704 C206.492525,1.25545095 207.564269,0.270557715 208.803474,0.270557715 Z M218.784094,16.2326205 L218.784094,24.7570413 L215.334417,24.7570413 L215.334417,8.896864 L218.784094,8.896864 L218.784094,11.2741925 C219.621394,9.54213887 221.697899,8.55724564 223.573452,8.55724564 C227.35805,8.55724564 229.535031,11.0364596 229.535031,15.519422 L229.535031,24.7570413 L226.085353,24.7570413 L226.085353,15.926964 C226.085353,13.44775 224.812657,11.987391 222.803136,11.987391 C220.525679,11.987391 218.784094,13.3458645 218.784094,16.2326205 Z" transform="translate(0 99)"/>
    <g transform="translate(73.016)">
      <path fill="url(#universallogin-logo-a)" d="M0.664282007,0.245750567 L10.9353635,0.245750567 C22.5333432,0.245750567 31.9353635,9.64777082 31.9353635,21.2457506 L31.9353635,38.4354592 C31.9353635,43.9850777 36.4342181,48.4839323 41.9838366,48.4839323 L41.9838366,48.4839323 C47.533455,48.4839323 52.0323097,43.9850777 52.0323097,38.4354592 L52.0323097,21.2457506 C52.0323097,9.64777082 61.4343299,0.245750567 73.0323097,0.245750567 L83.4781853,0.245750567 L83.4781853,38.2187147 C83.4781853,61.0871426 64.9396616,79.6256664 42.0712337,79.6256664 L42.0712337,79.6256664 C19.2028057,79.6256664 0.664282007,61.0871426 0.664282007,38.2187147 L0.664282007,0.245750567 Z"/>
      <path fill="url(#universallogin-logo-b)" d="M0.664282007,0.245750567 L10.9353635,0.245750567 C22.5333432,0.245750567 31.9353635,9.64777082 31.9353635,21.2457506 L31.9353635,38.4354592 C31.9353635,43.9850777 36.4342181,48.4839323 41.9838366,48.4839323 L41.9838366,48.4839323 C47.533455,48.4839323 52.0323097,43.9850777 52.0323097,38.4354592 L52.0323097,21.2457506 C52.0323097,9.64777082 61.4343299,0.245750567 73.0323097,0.245750567 L83.4781853,0.245750567 L83.4781853,38.2187147 C83.4781853,61.0871426 64.9396616,79.6256664 42.0712337,79.6256664 L42.0712337,79.6256664 C19.2028057,79.6256664 0.664282007,61.0871426 0.664282007,38.2187147 L0.664282007,0.245750567 Z"/>
      <path fill="url(#universallogin-logo-c)" d="M0.664282007,0.245750567 L10.9353635,0.245750567 C22.5333432,0.245750567 31.9353635,9.64777082 31.9353635,21.2457506 L31.9353635,38.4354592 C31.9353635,43.9850777 36.4342181,48.4839323 41.9838366,48.4839323 L41.9838366,48.4839323 C47.533455,48.4839323 52.0323097,43.9850777 52.0323097,38.4354592 L52.0323097,21.2457506 C52.0323097,9.64777082 61.4343299,0.245750567 73.0323097,0.245750567 L83.4781853,0.245750567 L83.4781853,38.2187147 C83.4781853,61.0871426 64.9396616,79.6256664 42.0712337,79.6256664 L42.0712337,79.6256664 C19.2028057,79.6256664 0.664282007,61.0871426 0.664282007,38.2187147 L0.664282007,0.245750567 Z"/>
      <path fill="url(#universallogin-logo-d)" d="M0.664282007,0.245750567 L10.9353635,0.245750567 C22.5333432,0.245750567 31.9353635,9.64777082 31.9353635,21.2457506 L31.9353635,38.4354592 C31.9353635,43.9850777 36.4342181,48.4839323 41.9838366,48.4839323 L41.9838366,48.4839323 C47.533455,48.4839323 52.0323097,43.9850777 52.0323097,38.4354592 L52.0323097,21.2457506 C52.0323097,9.64777082 61.4343299,0.245750567 73.0323097,0.245750567 L83.4781853,0.245750567 L83.4781853,38.2187147 C83.4781853,61.0871426 64.9396616,79.6256664 42.0712337,79.6256664 L42.0712337,79.6256664 C19.2028057,79.6256664 0.664282007,61.0871426 0.664282007,38.2187147 L0.664282007,0.245750567 Z"/>
      <path fill="url(#universallogin-logo-e)" d="M42.7222684,48.4600944 L48.7368193,50.8130563 L58.3769654,49.9196511 L62.7563877,48.4600944 L67.8801507,46.5999563 L73.6355686,41.6243007 L78.3531829,39.2021568 L80.5395659,32.6972444 L81.318658,27.2738497 L82.4968782,23.3763435 L82.4968782,16.9390583 L83.214389,11.0197305 L83.214389,6.29100501 C81.8298743,15.9494995 81.0178196,18.2680864 79.6981261,21.0296001 C77.7185857,25.1718707 77.7185857,25.2568582 75.0466905,28.9899236 C72.3747953,32.722989 71.8886812,33.4578566 66.7968581,37.8853687 C63.4023094,40.8370435 57.4764144,43.4447088 49.0191731,45.7083648 L48.0200207,46.4183909 C47.384239,46.8701954 46.7176651,47.2770237 46.0251689,47.6359034 L44.8711276,48.0752215 L43.5248047,48.3751069 L42.7222684,48.4600944 Z"/>
      <path fill="url(#universallogin-logo-f)" d="M0.997955393,0 L11.2752274,1.03028697e-13 C22.8732072,1.52403559e-13 32.2752274,9.40202025 32.2752274,21 L32.2752274,38.3569103 C32.2752274,43.9076274 36.7749727,48.4073726 42.3256898,48.4073726 L42.3256898,48.4073726 C47.8764069,48.4073726 52.3761521,43.9076274 52.3761521,38.3569103 L52.3761521,21 C52.3761521,9.40202025 61.7781724,8.13434689e-14 73.3761521,7.10542736e-15 L83.828253,0 L83.828253,38.2431845 C83.828253,61.1161396 65.2860593,79.6583333 42.4131042,79.6583333 L42.4131042,79.6583333 C19.5401491,79.6583333 0.997955393,61.1161396 0.997955393,38.2431845 L0.997955393,0 Z"/>
      <path fill="url(#universallogin-logo-g)" d="M0.664282007,0.245750567 L10.9353635,0.245750567 C22.5333432,0.245750567 31.9353635,9.64777082 31.9353635,21.2457506 L31.9353635,38.3480621 C31.9353635,43.9459487 36.4733471,48.4839323 42.0712337,48.4839323 L42.0712337,48.4839323 C48.6496154,48.4839323 55.1344315,46.9255944 60.9945307,43.9365573 L61.4767884,43.6905741 C67.63819,40.5478528 72.8879706,35.873593 76.7218598,30.1167831 L76.7975158,30.0031811 C80.6703647,24.1878709 82.8549243,17.4125969 83.1084243,10.4302958 L83.4781853,0.245750567 L83.4781853,38.2187147 C83.4781853,61.0871426 64.9396616,79.6256664 42.0712337,79.6256664 L42.0712337,79.6256664 C19.2028057,79.6256664 0.664282007,61.0871426 0.664282007,38.2187147 L0.664282007,0.245750567 Z"/>
      <path fill="url(#universallogin-logo-h)" d="M0.664282007,0.245750567 L10.9353635,0.245750567 C22.5333432,0.245750567 31.9353635,9.64777082 31.9353635,21.2457506 L31.9353635,38.3480621 C31.9353635,43.9459487 36.4733471,48.4839323 42.0712337,48.4839323 L42.0712337,48.4839323 C48.6496154,48.4839323 55.1344315,46.9255944 60.9945307,43.9365573 L61.4767884,43.6905741 C67.63819,40.5478528 72.8879706,35.873593 76.7218598,30.1167831 L76.7975158,30.0031811 C80.6703647,24.1878709 82.8549243,17.4125969 83.1084243,10.4302958 L83.4781853,0.245750567 L83.4781853,38.2187147 C83.4781853,61.0871426 64.9396616,79.6256664 42.0712337,79.6256664 L42.0712337,79.6256664 C19.2028057,79.6256664 0.664282007,61.0871426 0.664282007,38.2187147 L0.664282007,0.245750567 Z"/>
      <path fill="url(#universallogin-logo-i)" d="M16.8544476,71.3301242 L22.6010988,69.3425932 L32.1726568,65.7548294 L36.7899646,66.9359203 L41.9811982,65.0671371 L47.8285552,60.1134684 L52.6122617,57.6911563 L54.8593945,51.245278 L55.6775117,45.8770252 L55.1027395,42.5856441 L54.6714315,41.7391545 C54.7487699,44.5448573 54.4145084,46.5220129 53.668647,47.6706215 C52.9227855,48.8192301 51.7263142,50.1056533 50.0792329,51.529891 L26.8066713,63.3878534 L26.1262472,64.7628662 L25.6700566,65.4514738 L25.5332124,65.6300792 C25.3354838,65.8881494 25.1294081,66.1397156 24.9153126,66.3843784 L24.9153126,66.3843784 C24.7013041,66.6289418 24.4747657,66.8622505 24.2366088,67.0833662 L24.2013537,67.1160987 C23.9397855,67.3589506 23.6633978,67.5853353 23.3737845,67.7939476 L23.1246205,67.9734236 L22.0918994,68.6615092 L16.8544476,71.3301242 Z" transform="rotate(117 36.266 56.535)"/>
      <path fill="url(#universallogin-logo-j)" d="M0.664282007,0.245750567 L10.9353635,0.245750567 C22.5333432,0.245750567 31.9353635,9.64777082 31.9353635,21.2457506 L31.9353635,38.3480621 C31.9353635,43.9459487 36.4733471,48.4839323 42.0712337,48.4839323 L42.0712337,48.4839323 C48.6496154,48.4839323 55.1344315,46.9255944 60.9945307,43.9365573 L61.4767884,43.6905741 C67.63819,40.5478528 72.8879706,35.873593 76.7218598,30.1167831 L76.7975158,30.0031811 C80.6703647,24.1878709 82.8549243,17.4125969 83.1084243,10.4302958 L83.4781853,0.245750567 L83.4781853,38.2187147 C83.4781853,61.0871426 64.9396616,79.6256664 42.0712337,79.6256664 L42.0712337,79.6256664 C19.2028057,79.6256664 0.664282007,61.0871426 0.664282007,38.2187147 L0.664282007,0.245750567 Z"/>
      <path fill="url(#universallogin-logo-k)" d="M0.997955393,0 L11.652062,9.59232693e-14 C23.2500418,1.45298132e-13 32.652062,9.40202025 32.652062,21 L32.652062,26.4554339 L32.652062,69.3983135 C32.652062,75.064766 37.2456294,79.6583333 42.9120819,79.6583333 L42.9120819,79.6583333 C19.763549,79.6583333 0.997955393,60.8927397 0.997955393,37.7442068 L0.997955393,0 Z"/>
      <path fill="url(#universallogin-logo-l)" d="M0.997955393,0 L11.652062,9.59232693e-14 C23.2500418,1.45298132e-13 32.652062,9.40202025 32.652062,21 L32.652062,26.4554339 L32.652062,69.3983135 C32.652062,75.064766 37.2456294,79.6583333 42.9120819,79.6583333 L42.9120819,79.6583333 C19.763549,79.6583333 0.997955393,60.8927397 0.997955393,37.7442068 L0.997955393,0 Z"/>
      <path fill="url(#universallogin-logo-m)" d="M0.997955393,0 L11.2752274,9.9475983e-14 C22.8732072,1.48850845e-13 32.2752274,9.40202025 32.2752274,21 L32.2752274,38.2694959 C32.2752274,43.8684906 36.8141095,48.4073726 42.4131042,48.4073726 L42.4131042,48.4073726 C48.992251,48.4073726 55.4772776,46.8443932 61.3340523,43.8471673 L61.8225006,43.5972021 C67.9850462,40.4434968 73.232755,35.7576047 77.0611991,29.9899499 L77.146261,29.8618019 C81.0202677,24.0255057 83.2047077,17.2315028 83.458028,10.2310663 L83.828253,0 L83.828253,38.2431845 C83.828253,61.1161396 65.2860593,79.6583333 42.4131042,79.6583333 L42.4131042,79.6583333 C19.5401491,79.6583333 0.997955393,61.1161396 0.997955393,38.2431845 L0.997955393,0 Z"/>
      <path fill="url(#universallogin-logo-n)" d="M0.997955393,0 L11.652062,9.59232693e-14 C23.2500418,1.45298132e-13 32.652062,9.40202025 32.652062,21 L32.652062,26.4554339 L32.652062,69.3983135 C32.652062,75.064766 37.2456294,79.6583333 42.9120819,79.6583333 L42.9120819,79.6583333 C19.763549,79.6583333 0.997955393,60.8927397 0.997955393,37.7442068 L0.997955393,0 Z"/>
    </g>
  </g>
</svg>
