<svg xmlns="http://www.w3.org/2000/svg" width="30" height="30" viewBox="0 0 30 30">
  <path fill="#FFF" d="M30,5.86956522 C30,5.50972321 29.7086235,5.2173913 29.3478261,5.2173913 L18.2608696,5.2173913 L18.2608696,3.26086957 C18.2608696,1.46293304 16.7979365,0 15,0 C13.2020635,0 11.7391304,1.46293304 11.7391304,3.26086957 L11.7391304,5.2173913 L0.652173913,5.2173913 C0.291376549,5.2173913 0,5.50972321 0,5.86956522 C0,6.22940723 0.291376549,6.52173913 0.652173913,6.52173913 L2.42622709,6.52173913 L0.0194250815,16.1463995 C0.0130561957,16.1725118 0.0187882337,16.1986243 0.01560375,16.2247368 C0.0124193478,16.252123 5.20417043e-17,16.2763247 5.20417043e-17,16.3043478 L5.20417043e-17,18.9130435 C5.20417043e-17,20.71098 1.46293304,22.173913 3.26086957,22.173913 L5.86956522,22.173913 C7.66750174,22.173913 9.13043478,20.71098 9.13043478,18.9130435 L9.13043478,16.3043478 C9.13043478,16.2763247 9.11801543,16.252123 9.1141941,16.2247368 C9.1110097,16.1986243 9.11737859,16.1731488 9.11037277,16.1463995 L6.70420769,6.52173913 L11.7391304,6.52173913 L11.7391304,28.6956522 L5.86956522,28.6956522 C5.50876785,28.6956522 5.2173913,28.9870287 5.2173913,29.3478261 C5.2173913,29.7086235 5.50876785,30 5.86956522,30 L24.1304348,30 C24.4912321,30 24.7826087,29.7086235 24.7826087,29.3478261 C24.7826087,28.9870287 24.4912321,28.6956522 24.1304348,28.6956522 L18.2608696,28.6956522 L18.2608696,6.52173913 L23.2957923,6.52173913 L20.8889903,16.1463995 C20.8826214,16.1725118 20.8883535,16.1986243 20.885169,16.2247368 C20.8819846,16.252123 20.8695652,16.2763247 20.8695652,16.3043478 L20.8695652,18.9130435 C20.8695652,20.71098 22.3324983,22.173913 24.1304348,22.173913 L26.7391304,22.173913 C28.537067,22.173913 30,20.71098 30,18.9130435 L30,16.3043478 C30,16.2763247 29.9875807,16.252123 29.9837593,16.2247368 C29.9805749,16.1986243 29.9869438,16.1731488 29.979938,16.1463995 L27.5737729,6.52173913 L29.3478261,6.52173913 C29.7086235,6.52173913 30,6.22940723 30,5.86956522 Z M7.82608696,18.9130435 C7.82608696,19.9916143 6.94813606,20.8695652 5.86956522,20.8695652 L3.26086957,20.8695652 C2.18229872,20.8695652 1.30434783,19.9916143 1.30434783,18.9130435 L1.30434783,16.9565217 L7.82608696,16.9565217 L7.82608696,18.9130435 Z M7.6436184,15.6521739 L1.48681639,15.6521739 L3.76942508,6.52173913 L5.36037277,6.52173913 L7.6436184,15.6521739 Z M13.0434783,3.26086957 C13.0434783,2.18229872 13.9214292,1.30434783 15,1.30434783 C16.0785708,1.30434783 16.9565217,2.18229872 16.9565217,3.26086957 L16.9565217,23.4782609 L13.0434783,23.4782609 L13.0434783,3.26086957 Z M13.0434783,28.6956522 L13.0434783,24.7826087 L16.9565217,24.7826087 L16.9565217,28.6956522 L13.0434783,28.6956522 Z M28.6956522,18.9130435 C28.6956522,19.9916143 27.8177013,20.8695652 26.7391304,20.8695652 L24.1304348,20.8695652 C23.0518639,20.8695652 22.173913,19.9916143 22.173913,18.9130435 L22.173913,16.9565217 L28.6956522,16.9565217 L28.6956522,18.9130435 Z M28.5131836,15.6521739 L22.3563816,15.6521739 L24.6389903,6.52173913 L26.229938,6.52173913 L28.5131836,15.6521739 Z"/>
</svg>
