<svg xmlns="http://www.w3.org/2000/svg" width="30" height="30" viewBox="0 0 30 30">
  <g fill="#FFF">
    <path d="M22.826087 0C18.8706904 0 15.6521739 3.21851649 15.6521739 7.17391304 15.6521739 11.1293096 18.8706904 14.3478261 22.826087 14.3478261 26.7814835 14.3478261 30 11.1293096 30 7.17391304 30 3.21851649 26.7814835 0 22.826087 0zM22.826087 13.0434783C19.5894192 13.0434783 16.9565217 10.4099439 16.9565217 7.17391304 16.9565217 3.93788217 19.5894192 1.30434783 22.826087 1.30434783 26.0627548 1.30434783 28.6956522 3.93788217 28.6956522 7.17391304 28.6956522 10.4099439 26.0627548 13.0434783 22.826087 13.0434783zM7.17391304 30C11.1293096 30 14.3478261 26.7814835 14.3478261 22.826087 14.3478261 18.8706904 11.1293096 15.6521739 7.17391304 15.6521739 3.21851649 15.6521739 0 18.8706904 0 22.826087 0 26.7814835 3.21851649 30 7.17391304 30zM7.17391304 16.9565217C10.4099439 16.9565217 13.0434783 19.5900561 13.0434783 22.826087 13.0434783 26.0621178 10.4099439 28.6956522 7.17391304 28.6956522 3.93788217 28.6956522 1.30434783 26.0621178 1.30434783 22.826087 1.30434783 19.5900561 3.93788217 16.9565217 7.17391304 16.9565217zM.652173913 14.3478261C1.01201592 14.3478261 1.30434783 14.0554942 1.30434783 13.6956522L1.30434783 5.2173913 10.4347826 5.2173913 6.78254503 7.95664908C6.49435288 8.17223592 6.43639606 8.58143682 6.65230125 8.86962889 6.77999747 9.04031503 6.97615916 9.13043478 7.17454989 9.13043478 7.3102072 9.13043478 7.44777514 9.08808171 7.56528106 8.99987266L12.7826724 5.08682918C12.7938179 5.07854959 12.7976393 5.06485647 12.8081479 5.05625853 12.8581436 5.01390538 12.8973123 4.96295429 12.9326596 4.9069081 12.9476265 4.88334326 12.9664148 4.8639181 12.9781972 4.83907948 13.0180027 4.75501019 13.0434783 4.66361666 13.0434783 4.56521739 13.0434783 4.46681812 13.0180027 4.37542459 12.978834 4.29199223 12.9670516 4.26651668 12.9476265 4.24772845 12.9332966 4.22416353 12.8979492 4.16811734 12.8587806 4.11780318 12.8087848 4.07481318 12.7982762 4.06557832 12.7938179 4.05188519 12.7833093 4.04424253L7.56591799.131199049C7.27772592-.0853430707 6.86884337-.0261123913 6.65293818.261442745 6.43639606.549634891 6.49498981.958835788 6.78318187 1.17442255L10.4347826 3.91304348.652173913 3.91304348C.292331902 3.91304348 0 4.20537538 0 4.56521739L0 13.6956522C0 14.0554942.292331902 14.3478261.652173913 14.3478261zM29.3478261 15.6521739C28.9870287 15.6521739 28.6956522 15.9445058 28.6956522 16.3043478L28.6956522 24.7826087 19.5652174 24.7826087 23.2168181 22.0433509C23.5050102 21.8277641 23.5636039 21.4185632 23.3470618 21.1303711 23.1305197 20.842179 22.7222741 20.7829484 22.4347189 21.0001273L17.2173276 24.9131708C17.2068189 24.9208135 17.2023607 24.9345066 17.1918521 24.9431046 17.1412194 24.9860946 17.1014139 25.0376826 17.0654297 25.0943657 17.0510997 25.1172937 17.0323115 25.1360819 17.021166 25.1602836 16.9819973 25.2449898 16.9565217 25.3363833 16.9565217 25.4347826 16.9565217 25.5331819 16.9819973 25.6245754 17.021166 25.7086447 17.0329484 25.7334833 17.0510997 25.7516347 17.0654297 25.7745627 17.1014139 25.8312457 17.1412194 25.8828337 17.1918521 25.9258237 17.2023607 25.9344217 17.2061821 25.9481148 17.2173276 25.9557575L22.4347189 29.868801C22.5522249 29.95701 22.6891559 29.9993632 22.8254501 29.9993632 23.0244778 29.9993632 23.2193657 29.9092434 23.3476987 29.7385573 23.5642409 29.4503651 23.5056471 29.0411642 23.217455 28.8255774L19.5652174 26.0869565 29.3478261 26.0869565C29.7086235 26.0869565 30 25.7946246 30 25.4347826L30 16.3043478C30 15.9445058 29.7086235 15.6521739 29.3478261 15.6521739z"/>
    <path d="M7.17391304 26.0869565C8.97184957 26.0869565 10.4347826 24.6240235 10.4347826 22.826087 10.4347826 21.0281504 8.97184957 19.5652174 7.17391304 19.5652174 5.37597652 19.5652174 3.91304348 21.0281504 3.91304348 22.826087 3.91304348 24.6240235 5.37597652 26.0869565 7.17391304 26.0869565zM7.17391304 20.8695652C8.25248389 20.8695652 9.13043478 21.7475161 9.13043478 22.826087 9.13043478 23.9046578 8.25248389 24.7826087 7.17391304 24.7826087 6.0953422 24.7826087 5.2173913 23.9046578 5.2173913 22.826087 5.2173913 21.7475161 6.0953422 20.8695652 7.17391304 20.8695652zM22.826087 3.91304348C21.0281504 3.91304348 19.5652174 5.37597652 19.5652174 7.17391304 19.5652174 8.97184957 21.0281504 10.4347826 22.826087 10.4347826 24.6240235 10.4347826 26.0869565 8.97184957 26.0869565 7.17391304 26.0869565 5.37597652 24.6240235 3.91304348 22.826087 3.91304348zM22.826087 9.13043478C21.7475161 9.13043478 20.8695652 8.25248389 20.8695652 7.17391304 20.8695652 6.0953422 21.7475161 5.2173913 22.826087 5.2173913 23.9046578 5.2173913 24.7826087 6.0953422 24.7826087 7.17391304 24.7826087 8.25248389 23.9046578 9.13043478 22.826087 9.13043478z"/>
  </g>
</svg>
