<?xml version="1.0" standalone="no"?>
<!DOCTYPE svg PUBLIC "-//W3C//DTD SVG 20010904//EN"
 "http://www.w3.org/TR/2001/REC-SVG-20010904/DTD/svg10.dtd">
<svg version="1.0" xmlns="http://www.w3.org/2000/svg"
 width="700.000000pt" height="700.000000pt" viewBox="0 0 700.000000 700.000000"
 preserveAspectRatio="xMidYMid meet">
<metadata>
Created by potrace 1.11, written by Peter Selinger 2001-2013
</metadata>
<g transform="translate(0.000000,700.000000) scale(0.100000,-0.100000)"
fill="#000000" stroke="none">
<path d="M3298 6995 c-2 -1 -41 -5 -88 -9 -199 -14 -438 -56 -635 -111 -49
-14 -97 -28 -105 -30 -36 -9 -222 -75 -293 -104 -104 -42 -293 -134 -395 -193
-46 -26 -88 -48 -93 -48 -5 0 -9 -4 -9 -10 0 -5 -5 -10 -11 -10 -17 0 -230
-147 -344 -238 -289 -231 -549 -514 -747 -817 -111 -169 -135 -210 -222 -390
-149 -303 -232 -554 -296 -890 -47 -247 -55 -348 -55 -650 0 -316 19 -492 80
-769 75 -336 228 -718 401 -1005 38 -63 74 -121 79 -130 96 -158 308 -415 490
-595 146 -143 438 -374 576 -455 13 -8 51 -31 84 -51 217 -132 606 -301 800
-349 22 -5 85 -21 140 -36 115 -30 282 -62 370 -71 33 -3 63 -8 66 -9 15 -10
227 -20 409 -20 188 0 341 8 430 21 144 21 295 48 345 61 33 8 67 16 75 18
109 22 388 117 549 187 121 53 308 148 353 179 14 11 29 19 33 19 24 0 383
257 495 355 118 103 293 278 365 365 21 25 41 47 44 50 4 3 45 55 91 115 332
436 547 915 654 1456 14 70 28 155 32 190 3 35 8 67 10 70 9 17 19 214 18 399
0 188 -6 331 -19 420 -3 19 -7 56 -10 81 -3 25 -7 54 -9 65 -2 10 -11 60 -21
109 -98 525 -337 1052 -670 1480 -43 55 -81 102 -84 105 -3 3 -35 38 -70 78
-479 546 -1164 944 -1888 1096 -98 21 -243 43 -393 61 -54 7 -526 16 -532 10z"/>
</g>
</svg>
