<svg width="109" height="36" viewBox="0 0 109 36" fill="none" xmlns="http://www.w3.org/2000/svg">
<g id="Group 6 Copy 2">
<path id="Sirius" fill-rule="evenodd" clip-rule="evenodd" d="M52.9419 8.46201C56.8419 8.46201 58.3499 11.296 58.8179 12.674L55.1259 14.364C54.7619 13.558 54.2159 12.57 52.8379 12.57C51.9799 12.57 51.4079 13.09 51.4079 13.792C51.4079 16.262 58.9999 16.002 58.9999 21.566C58.9999 24.92 56.6079 27.338 52.6299 27.338C48.5479 27.338 46.9099 24.374 46.4419 22.996L50.1599 21.15C50.6539 22.216 51.6419 23.178 52.8899 23.178C53.9559 23.178 54.5019 22.71 54.5019 21.904C54.5019 19.486 46.9619 19.694 46.9619 13.87C46.9619 10.594 49.3279 8.46201 52.9419 8.46201ZM65.1814 13.35V27H60.8394V13.35H65.1814ZM62.9714 12.518C61.5934 12.518 60.5534 11.53 60.5534 10.178C60.5534 8.80001 61.5934 7.81201 62.9714 7.81201C64.3494 7.81201 65.4154 8.80001 65.4154 10.178C65.4154 11.53 64.3494 12.518 62.9714 12.518ZM75.3669 13.012V17.432C75.1849 17.406 74.9769 17.38 74.6649 17.38C72.5589 17.38 71.8569 18.914 71.8569 20.968V27H67.5149V13.35H71.7529V15.17C72.4029 13.844 73.6769 13.012 75.3669 13.012ZM81.2884 13.35V27H76.9464V13.35H81.2884ZM79.0784 12.518C77.7004 12.518 76.6604 11.53 76.6604 10.178C76.6604 8.80001 77.7004 7.81201 79.0784 7.81201C80.4564 7.81201 81.5224 8.80001 81.5224 10.178C81.5224 11.53 80.4564 12.518 79.0784 12.518ZM87.8599 13.35V21.488C87.8599 22.762 88.6139 23.438 89.6539 23.438C90.8499 23.438 91.5259 22.58 91.5259 21.488V13.35H95.8679V27H91.6299V25.596C91.1099 26.402 89.9139 27.338 88.1979 27.338C83.9339 27.338 83.5179 23.698 83.5179 20.916V13.35H87.8599ZM102.465 27.338C99.8654 27.338 98.0194 26.09 97.2134 24.998L99.6574 22.632C100.385 23.282 101.295 23.828 102.673 23.828C103.505 23.828 103.895 23.568 103.895 23.074C103.895 21.514 97.6554 22.19 97.6554 17.224C97.6554 14.598 99.9434 13.012 102.907 13.012C105.507 13.012 106.989 14.26 107.795 15.352L104.987 17.562C104.571 17.146 103.791 16.496 102.725 16.496C102.101 16.496 101.737 16.756 101.737 17.172C101.737 18.888 108.029 17.9 108.029 22.84C108.029 25.622 105.585 27.338 102.465 27.338Z" fill="#26272C"/>
<g id="Group 4">
<path id="Oval" fill-rule="evenodd" clip-rule="evenodd" d="M18 36C27.9411 36 36 27.9411 36 18C36 8.05887 27.9411 0 18 0C8.05887 0 0 8.05887 0 18C0 27.9411 8.05887 36 18 36Z" fill="url(#paint0_linear)"/>
<mask id="mask0" mask-type="alpha" maskUnits="userSpaceOnUse" x="0" y="0" width="36" height="36">
<path id="Oval_2" fill-rule="evenodd" clip-rule="evenodd" d="M18 36C27.9411 36 36 27.9411 36 18C36 8.05887 27.9411 0 18 0C8.05887 0 0 8.05887 0 18C0 27.9411 8.05887 36 18 36Z" fill="white"/>
</mask>
<g mask="url(#mask0)">
<path id="Oval_3" opacity="0.1" fill-rule="evenodd" clip-rule="evenodd" d="M12 36C21.9411 36 30 27.9411 30 18C30 8.05887 21.9411 0 12 0C2.05887 0 -6 8.05887 -6 18C-6 27.9411 2.05887 36 12 36Z" fill="white"/>
<path id="Oval Copy" opacity="0.15" fill-rule="evenodd" clip-rule="evenodd" d="M6 36C15.9411 36 24 27.9411 24 18C24 8.05887 15.9411 0 6 0C-3.94113 0 -12 8.05887 -12 18C-12 27.9411 -3.94113 36 6 36Z" fill="white"/>
<path id="Oval Copy 2" opacity="0.2" fill-rule="evenodd" clip-rule="evenodd" d="M0 36C9.94113 36 18 27.9411 18 18C18 8.05887 9.94113 0 0 0C-9.94113 0 -18 8.05887 -18 18C-18 27.9411 -9.94113 36 0 36Z" fill="white"/>
<path id="Oval Copy 3" opacity="0.25" fill-rule="evenodd" clip-rule="evenodd" d="M-6 36C3.94113 36 12 27.9411 12 18C12 8.05887 3.94113 0 -6 0C-15.9411 0 -24 8.05887 -24 18C-24 27.9411 -15.9411 36 -6 36Z" fill="white"/>
<path id="Oval Copy 4" opacity="0.3" fill-rule="evenodd" clip-rule="evenodd" d="M-12 36C-2.05887 36 6 27.9411 6 18C6 8.05887 -2.05887 0 -12 0C-21.9411 0 -30 8.05887 -30 18C-30 27.9411 -21.9411 36 -12 36Z" fill="white"/>
</g>
</g>
</g>
<defs>
<linearGradient id="paint0_linear" x1="-18" y1="18" x2="18" y2="54" gradientUnits="userSpaceOnUse">
<stop stop-color="#38B8F2"/>
<stop offset="1" stop-color="#843CF6"/>
</linearGradient>
</defs>
</svg>
